<mxfile host="app.diagrams.net" agent="Mozilla/5.0 (Windows NT 10.0; Win64; x64) AppleWebKit/537.36 (KHTML, like Gecko) Chrome/126.0.0.0 Safari/537.36 Edg/126.0.0.0" version="24.7.6">
  <diagram name="Page-1" id="74e2e168-ea6b-b213-b513-2b3c1d86103e">
    <mxGraphModel dx="1426" dy="759" grid="1" gridSize="10" guides="1" tooltips="1" connect="1" arrows="1" fold="1" page="1" pageScale="1" pageWidth="1100" pageHeight="850" background="none" math="0" shadow="0">
      <root>
        <mxCell id="0" />
        <mxCell id="1" parent="0" />
        <mxCell id="77e6c97f196da883-1" value="Pool" style="swimlane;html=1;childLayout=stackLayout;startSize=20;rounded=0;shadow=0;labelBackgroundColor=none;strokeWidth=1;fontFamily=Verdana;fontSize=8;align=center;" parent="1" vertex="1">
          <mxGeometry x="70" y="40" width="760" height="750" as="geometry" />
        </mxCell>
        <mxCell id="77e6c97f196da883-2" value="市场销售人员" style="swimlane;html=1;startSize=20;" parent="77e6c97f196da883-1" vertex="1">
          <mxGeometry y="20" width="160" height="730" as="geometry" />
        </mxCell>
        <mxCell id="HrTUQKB0u9LLwr773fbC-1" value="获取原始需求" style="rounded=0;whiteSpace=wrap;html=1;" vertex="1" parent="77e6c97f196da883-2">
          <mxGeometry x="20" y="40" width="120" height="60" as="geometry" />
        </mxCell>
        <mxCell id="77e6c97f196da883-3" value="产品负责人" style="swimlane;html=1;startSize=20;" parent="77e6c97f196da883-1" vertex="1">
          <mxGeometry x="160" y="20" width="180" height="730" as="geometry" />
        </mxCell>
        <mxCell id="HrTUQKB0u9LLwr773fbC-5" value="" style="edgeStyle=orthogonalEdgeStyle;rounded=0;orthogonalLoop=1;jettySize=auto;html=1;" edge="1" parent="77e6c97f196da883-3" source="HrTUQKB0u9LLwr773fbC-2" target="HrTUQKB0u9LLwr773fbC-4">
          <mxGeometry relative="1" as="geometry" />
        </mxCell>
        <mxCell id="HrTUQKB0u9LLwr773fbC-2" value="需求初步分析" style="rounded=0;whiteSpace=wrap;html=1;" vertex="1" parent="77e6c97f196da883-3">
          <mxGeometry x="20" y="40" width="120" height="60" as="geometry" />
        </mxCell>
        <mxCell id="HrTUQKB0u9LLwr773fbC-4" value="标准化描述" style="rounded=0;whiteSpace=wrap;html=1;" vertex="1" parent="77e6c97f196da883-3">
          <mxGeometry x="20" y="140" width="120" height="60" as="geometry" />
        </mxCell>
        <mxCell id="77e6c97f196da883-4" value="系统工程师" style="swimlane;html=1;startSize=20;" parent="77e6c97f196da883-1" vertex="1">
          <mxGeometry x="340" y="20" width="420" height="730" as="geometry" />
        </mxCell>
        <mxCell id="HrTUQKB0u9LLwr773fbC-9" value="" style="edgeStyle=orthogonalEdgeStyle;rounded=0;orthogonalLoop=1;jettySize=auto;html=1;" edge="1" parent="77e6c97f196da883-4" source="HrTUQKB0u9LLwr773fbC-6" target="HrTUQKB0u9LLwr773fbC-8">
          <mxGeometry relative="1" as="geometry" />
        </mxCell>
        <mxCell id="HrTUQKB0u9LLwr773fbC-6" value="5W内容分析" style="rounded=0;whiteSpace=wrap;html=1;" vertex="1" parent="77e6c97f196da883-4">
          <mxGeometry x="30" y="240" width="120" height="60" as="geometry" />
        </mxCell>
        <mxCell id="HrTUQKB0u9LLwr773fbC-11" value="" style="edgeStyle=orthogonalEdgeStyle;rounded=0;orthogonalLoop=1;jettySize=auto;html=1;" edge="1" parent="77e6c97f196da883-4" source="HrTUQKB0u9LLwr773fbC-8" target="HrTUQKB0u9LLwr773fbC-10">
          <mxGeometry relative="1" as="geometry" />
        </mxCell>
        <mxCell id="HrTUQKB0u9LLwr773fbC-13" value="" style="edgeStyle=orthogonalEdgeStyle;rounded=0;orthogonalLoop=1;jettySize=auto;html=1;" edge="1" parent="77e6c97f196da883-4" source="HrTUQKB0u9LLwr773fbC-8" target="HrTUQKB0u9LLwr773fbC-12">
          <mxGeometry relative="1" as="geometry" />
        </mxCell>
        <mxCell id="HrTUQKB0u9LLwr773fbC-15" value="" style="edgeStyle=orthogonalEdgeStyle;rounded=0;orthogonalLoop=1;jettySize=auto;html=1;" edge="1" parent="77e6c97f196da883-4" source="HrTUQKB0u9LLwr773fbC-8" target="HrTUQKB0u9LLwr773fbC-14">
          <mxGeometry relative="1" as="geometry" />
        </mxCell>
        <mxCell id="HrTUQKB0u9LLwr773fbC-8" value="关联场景和用例" style="rounded=0;whiteSpace=wrap;html=1;" vertex="1" parent="77e6c97f196da883-4">
          <mxGeometry x="30" y="360" width="120" height="60" as="geometry" />
        </mxCell>
        <mxCell id="HrTUQKB0u9LLwr773fbC-10" value="创建/选取场景" style="rounded=0;whiteSpace=wrap;html=1;" vertex="1" parent="77e6c97f196da883-4">
          <mxGeometry x="220" y="330" width="120" height="60" as="geometry" />
        </mxCell>
        <mxCell id="HrTUQKB0u9LLwr773fbC-12" value="创建/选取用例" style="rounded=0;whiteSpace=wrap;html=1;" vertex="1" parent="77e6c97f196da883-4">
          <mxGeometry x="220" y="400" width="120" height="60" as="geometry" />
        </mxCell>
        <mxCell id="HrTUQKB0u9LLwr773fbC-17" value="" style="edgeStyle=orthogonalEdgeStyle;rounded=0;orthogonalLoop=1;jettySize=auto;html=1;" edge="1" parent="77e6c97f196da883-4" source="HrTUQKB0u9LLwr773fbC-14" target="HrTUQKB0u9LLwr773fbC-16">
          <mxGeometry relative="1" as="geometry" />
        </mxCell>
        <mxCell id="HrTUQKB0u9LLwr773fbC-14" value="分析产品功能变化" style="rounded=0;whiteSpace=wrap;html=1;" vertex="1" parent="77e6c97f196da883-4">
          <mxGeometry x="30" y="570" width="120" height="60" as="geometry" />
        </mxCell>
        <mxCell id="HrTUQKB0u9LLwr773fbC-16" value="" style="rounded=0;whiteSpace=wrap;html=1;" vertex="1" parent="77e6c97f196da883-4">
          <mxGeometry x="30" y="690" width="120" height="60" as="geometry" />
        </mxCell>
        <mxCell id="HrTUQKB0u9LLwr773fbC-19" style="edgeStyle=orthogonalEdgeStyle;rounded=0;orthogonalLoop=1;jettySize=auto;html=1;" edge="1" parent="77e6c97f196da883-4" source="HrTUQKB0u9LLwr773fbC-18" target="HrTUQKB0u9LLwr773fbC-6">
          <mxGeometry relative="1" as="geometry" />
        </mxCell>
        <mxCell id="HrTUQKB0u9LLwr773fbC-18" value="初始需求（IR)" style="shape=document;whiteSpace=wrap;html=1;boundedLbl=1;" vertex="1" parent="77e6c97f196da883-4">
          <mxGeometry x="30" y="140" width="120" height="80" as="geometry" />
        </mxCell>
        <mxCell id="HrTUQKB0u9LLwr773fbC-3" value="" style="edgeStyle=orthogonalEdgeStyle;rounded=0;orthogonalLoop=1;jettySize=auto;html=1;" edge="1" parent="77e6c97f196da883-1" source="HrTUQKB0u9LLwr773fbC-1" target="HrTUQKB0u9LLwr773fbC-2">
          <mxGeometry relative="1" as="geometry" />
        </mxCell>
        <mxCell id="HrTUQKB0u9LLwr773fbC-7" value="" style="edgeStyle=orthogonalEdgeStyle;rounded=0;orthogonalLoop=1;jettySize=auto;html=1;entryX=0;entryY=0.5;entryDx=0;entryDy=0;" edge="1" parent="77e6c97f196da883-1" source="HrTUQKB0u9LLwr773fbC-4" target="HrTUQKB0u9LLwr773fbC-18">
          <mxGeometry relative="1" as="geometry" />
        </mxCell>
      </root>
    </mxGraphModel>
  </diagram>
</mxfile>
